<svg width="49" height="49" viewBox="0 0 49 49" fill="none" xmlns="http://www.w3.org/2000/svg">
<g clip-path="url(#clip0)">
<path d="M0 0.000244141H48.2399V26.0498L45.8522 29.7818L48.2399 33.1033V48.2553H0V23.6986L1.49234 21.9819L0 20.3398V0.000244141Z" fill="#016FD0"/>
<path d="M9.36523 33.6256V26.0496H17.3843L18.2447 27.1715L19.1335 26.0496H48.2407V33.1031C48.2407 33.1031 47.4795 33.618 46.5991 33.6256H30.4819L29.5118 32.4313V33.6256H26.3331V31.587C26.3331 31.587 25.8989 31.8715 24.9602 31.8715H23.8783V33.6256H19.0654L18.2063 32.4796L17.334 33.6256H9.36523Z" fill="white"/>
<path d="M0 20.3396L1.80833 16.1224H4.93565L5.9619 18.4847V16.1224H9.84945L10.4604 17.8298L11.0526 16.1224H28.5037V16.9808C28.5037 16.9808 29.4211 16.1224 30.9288 16.1224L36.591 16.1422L37.5995 18.4736V16.1224H40.8528L41.7482 17.4616V16.1224H45.0314V23.6984H41.7482L40.8901 22.3549V23.6984H36.1103L35.6296 22.5042H34.3447L33.8718 23.6984H30.6303C29.333 23.6984 28.5037 22.8576 28.5037 22.8576V23.6984H23.6163L22.6463 22.5042V23.6984H4.47236L3.99201 22.5042H2.71113L2.23418 23.6984H0V20.3396Z" fill="white"/>
<path d="M2.44881 17.0564L0.00976562 22.7291H1.59771L2.04774 21.5931H4.664L5.11171 22.7291H6.73463L4.29791 17.0564H2.44881ZM3.35121 18.3766L4.14868 20.3616H2.55141L3.35121 18.3766V18.3766Z" fill="#016FD0"/>
<path d="M6.90234 22.7281V17.0554L9.1589 17.0638L10.4714 20.7212L11.7525 17.0554H13.991V22.7281H12.5732V18.5482L11.0704 22.7281H9.82708L8.32007 18.5482V22.7281H6.90234Z" fill="#016FD0"/>
<path d="M14.9609 22.7281V17.0554H19.5872V18.3243H16.3936V19.2946H19.5126V20.4889H16.3936V21.4965H19.5872V22.7281H14.9609Z" fill="#016FD0"/>
<path d="M20.4082 17.0564V22.7291H21.8259V20.7138H22.4229L24.1227 22.7291H25.8552L23.9898 20.6391C24.7554 20.5745 25.5451 19.9172 25.5451 18.8968C25.5451 17.703 24.6085 17.0564 23.5631 17.0564H20.4082V17.0564ZM21.8259 18.3253H23.4465C23.8353 18.3253 24.1181 18.6295 24.1181 18.9224C24.1181 19.2993 23.7517 19.5195 23.4675 19.5195H21.8259V18.3253V18.3253Z" fill="#016FD0"/>
<path d="M27.5706 22.7281H26.123V17.0554H27.5706V22.7281Z" fill="#016FD0"/>
<path d="M31.0039 22.7281H30.6914C29.1796 22.7281 28.2617 21.5367 28.2617 19.9151C28.2617 18.2535 29.1693 17.0554 31.0785 17.0554H32.6455V18.3989H31.0212C30.2462 18.3989 29.6981 19.004 29.6981 19.9291C29.6981 21.0277 30.3248 21.4891 31.2277 21.4891H31.6008L31.0039 22.7281Z" fill="#016FD0"/>
<path d="M34.0875 17.0564L31.6484 22.7291H33.2364L33.6864 21.5931H36.3027L36.7504 22.7291H38.3733L35.9366 17.0564H34.0875ZM34.9899 18.3766L35.7873 20.3616H34.1901L34.9899 18.3766Z" fill="#016FD0"/>
<path d="M38.5391 22.7281V17.0554H40.3415L42.643 20.6195V17.0554H44.0607V22.7281H42.3166L39.9568 19.0707V22.7281H38.5391Z" fill="#016FD0"/>
<path d="M10.3359 32.6552V26.9825H14.9622V28.2514H11.7686V29.2218H14.8876V30.416H11.7686V31.4237H14.9622V32.6552H10.3359Z" fill="#016FD0"/>
<path d="M33.0039 32.6552V26.9825H37.6302V28.2514H34.4366V29.2218H37.5406V30.416H34.4366V31.4237H37.6302V32.6552H33.0039Z" fill="#016FD0"/>
<path d="M15.1396 32.6552L17.3921 29.8539L15.0859 26.9825H16.8721L18.2455 28.7576L19.6236 26.9825H21.3398L19.064 29.8189L21.3206 32.6552H19.5347L18.2012 30.9082L16.9001 32.6552H15.1396Z" fill="#016FD0"/>
<path d="M21.4902 26.9836V32.6563H22.9453V30.8649H24.4376C25.7003 30.8649 26.6575 30.1948 26.6575 28.8916C26.6575 27.8121 25.9068 26.9836 24.6218 26.9836H21.4902V26.9836ZM22.9453 28.2665H24.5169C24.9248 28.2665 25.2164 28.5166 25.2164 28.9196C25.2164 29.2982 24.9263 29.5727 24.5122 29.5727H22.9453V28.2665Z" fill="#016FD0"/>
<path d="M27.2734 26.9825V32.6552H28.6912V30.6399H29.2881L30.988 32.6552H32.7205L30.8551 30.5653C31.6206 30.5007 32.4104 29.8434 32.4104 28.8229C32.4104 27.6292 31.4737 26.9825 30.4283 26.9825H27.2734V26.9825ZM28.6912 28.2514H30.3118C30.7005 28.2514 30.9833 28.5556 30.9833 28.8486C30.9833 29.2254 30.6169 29.4457 30.3327 29.4457H28.6912V28.2514V28.2514Z" fill="#016FD0"/>
<path d="M38.2855 32.6552V31.4237H41.1228C41.5426 31.4237 41.7244 31.1967 41.7244 30.9478C41.7244 30.7094 41.5432 30.4683 41.1228 30.4683H39.8406C38.7262 30.4683 38.1055 29.789 38.1055 28.7693C38.1055 27.8597 38.6739 26.9825 40.33 26.9825H43.0908L42.4939 28.2589H40.1061C39.6497 28.2589 39.5092 28.4985 39.5092 28.7273C39.5092 28.9624 39.6828 29.2218 40.0315 29.2218H41.3746C42.617 29.2218 43.1561 29.9267 43.1561 30.8499C43.1561 31.8423 42.5554 32.6552 41.307 32.6552H38.2855Z" fill="#016FD0"/>
<path d="M43.4886 32.6552V31.4237H46.3259C46.7457 31.4237 46.9275 31.1967 46.9275 30.9478C46.9275 30.7094 46.7463 30.4683 46.3259 30.4683H45.0438C43.9293 30.4683 43.3086 29.789 43.3086 28.7693C43.3086 27.8597 43.877 26.9825 45.5331 26.9825H48.2939L47.697 28.2589H45.3093C44.8528 28.2589 44.7123 28.4985 44.7123 28.7273C44.7123 28.9624 44.886 29.2218 45.2346 29.2218H46.5777C47.8201 29.2218 48.3592 29.9267 48.3592 30.8499C48.3592 31.8423 47.7585 32.6552 46.5101 32.6552H43.4886Z" fill="#016FD0"/>
</g>
<defs>
<clipPath id="clip0">
<rect width="48.36" height="48.2551" fill="white"/>
</clipPath>
</defs>
</svg>
